<svg xmlns="http://www.w3.org/2000/svg" viewBox="0 0 50 50" width="36" height="36" style="fill:white;opacity:0.5;">
    <path d="M 25 7 C 24.846625 7 24.7035 7.02325 24.5625 7.09375 L 0.5625 19.09375 C 0.2245 19.26375 0 19.621 0 20 C 0 20.379 0.2235 20.73625 0.5625 20.90625 L 4 22.625 L 4 37.1875 C 2.8422794 37.603663 2 38.700921 2 40 C 2 41.273 3.5325 43.6125 4.1875 44.5625 L 5 45.75 L 5.8125 44.5625 C 6.4675 43.6135 8 41.273 8 40 C 8 38.700921 7.1577206 37.603663 6 37.1875 L 6 23.625 L 8 24.625 L 8 22 C 8 18.53 12.993 17.82725 15.125 17.53125 C 18.338 17.08525 22.268 17 25 17 C 27.731 17 31.661 17.08525 34.875 17.53125 C 37.007 17.82725 42 18.53 42 22 L 42 24.625 L 49.4375 20.90625 C 49.7765 20.73725 50 20.379 50 20 C 50 19.621 49.7765 19.26375 49.4375 19.09375 L 25.4375 7.09375 C 25.297 7.02325 25.153375 7 25 7 z M 25 19 C 19.398 19 10 19.39 10 22 L 10 26.65625 C 12.08 25.76825 16.322 25 25 25 C 33.678 25 37.92 25.76825 40 26.65625 L 40 22 C 40 19.39 30.602 19 25 19 z M 25 27 C 14.608 27 10.291 28.222 10 29 C 10.017 31.603 19.403 32 25 32 C 30.48 32 39.57575 31.61625 39.96875 29.15625 C 39.97875 29.09925 40 29.059 40 29 C 39.729 28.234 35.414 27 25 27 z"/>
</svg>