<?xml version="1.0"?>
<svg xmlns="http://www.w3.org/2000/svg" viewBox="0 0 26 26" width="36" height="36" style="fill:white;opacity:0.5;">
    <path d="M 1 2 C 0.4 2 0 2.4 0 3 L 0 5 C 0 5.6 0.4 6 1 6 L 3 6 C 3.6 6 4 5.6 4 5 L 4 3 C 4 2.4 3.6 2 3 2 L 1 2 z M 6.8125 3 A 1.001098 1.001098 0 0 0 7 5 L 24 5 A 1.0001 1.0001 0 1 0 24 3 L 7 3 A 1.0001 1.0001 0 0 0 6.90625 3 A 1.001098 1.001098 0 0 0 6.8125 3 z M 1 8 C 0.4 8 0 8.4 0 9 L 0 11 C 0 11.6 0.4 12 1 12 L 3 12 C 3.6 12 4 11.6 4 11 L 4 9 C 4 8.4 3.6 8 3 8 L 1 8 z M 6.8125 9 A 1.001098 1.001098 0 0 0 7 11 L 24 11 A 1.0001 1.0001 0 1 0 24 9 L 7 9 A 1.0001 1.0001 0 0 0 6.90625 9 A 1.001098 1.001098 0 0 0 6.8125 9 z M 1 14 C 0.4 14 0 14.4 0 15 L 0 17 C 0 17.6 0.4 18 1 18 L 3 18 C 3.6 18 4 17.6 4 17 L 4 15 C 4 14.4 3.6 14 3 14 L 1 14 z M 6.8125 15 A 1.001098 1.001098 0 0 0 7 17 L 24 17 A 1.0001 1.0001 0 1 0 24 15 L 7 15 A 1.0001 1.0001 0 0 0 6.90625 15 A 1.001098 1.001098 0 0 0 6.8125 15 z M 1 20 C 0.4 20 0 20.4 0 21 L 0 23 C 0 23.6 0.4 24 1 24 L 3 24 C 3.6 24 4 23.6 4 23 L 4 21 C 4 20.4 3.6 20 3 20 L 1 20 z M 6.8125 21 A 1.001098 1.001098 0 0 0 7 23 L 24 23 A 1.0001 1.0001 0 1 0 24 21 L 7 21 A 1.0001 1.0001 0 0 0 6.90625 21 A 1.001098 1.001098 0 0 0 6.8125 21 z"/>
</svg>
