<svg xmlns="http://www.w3.org/2000/svg" viewBox="0 0 16 16" width="42" height="42" style="fill:white;opacity:0.5;">
    <path d="M 7.5 1 C 3.9160714 1 1 3.9160714 1 7.5 C 1 11.083929 3.9160714 14 7.5 14 C 11.083929 14 14 11.083929 14 7.5 C 14 3.9160714 11.083929 1 7.5 1 z M 7.5 2 C 10.543488 2 13 4.4565116 13 7.5 C 13 8.8390022 12.524188 10.063062 11.732422 11.015625 C 11.303755 9.7972948 10.376657 8.8153931 9.1855469 8.3320312 C 9.6824148 7.8743065 10 7.2245317 10 6.5 C 10 5.1252104 8.8747896 4 7.5 4 C 6.1252104 4 5 5.1252104 5 6.5 C 5 7.2245317 5.3175852 7.8743065 5.8144531 8.3320312 C 4.6241218 8.8153442 3.6985817 9.7978777 3.2695312 11.015625 C 2.4772618 10.062918 2 8.8394756 2 7.5 C 2 4.4565116 4.4565116 2 7.5 2 z M 7.5 5 C 8.3343494 5 9 5.6656506 9 6.5 C 9 7.3343494 8.3343494 8 7.5 8 C 6.6656506 8 6 7.3343494 6 6.5 C 6 5.6656506 6.6656506 5 7.5 5 z M 7.5 9 C 9.1998715 9 10.593656 10.208841 10.916016 11.808594 C 9.9779988 12.552786 8.7937642 13 7.5 13 C 6.2062356 13 5.0220011 12.552786 4.0839844 11.808594 C 4.4059532 10.207556 5.7997554 9 7.5 9 z"/>
</svg>