<svg xmlns="http://www.w3.org/2000/svg" viewBox="0 0 50 50" width="42" height="42" style="fill:white;opacity:0.5;">
    <path d="M 26.5625 1 C 22.6205 1 19.40625 4.141 19.40625 8 C 19.40625 9.769 20.035 10.99125 21.125 12.53125 C 21.896 13.62225 21.98975 14.345 21.84375 14.625 C 21.70475 14.894 21.16275 15.046 20.46875 15 C 17.99575 14.833 10.3415 13.9405 10.3125 13.9375 C 10.1415 13.9105 9.9665 13.90625 9.8125 13.90625 C 8.9365 13.90625 7.41975 14.32925 7.09375 17.15625 C 7.00775 17.57025 6.61525 19.8095 6.03125 27.5625 C 5.96925 27.8795 6.0175 28.16325 6.0625 28.40625 C 6.2755 29.50225 7.004 30.15625 8 30.15625 C 9.033 30.15625 10.20325 29.46275 11.78125 28.34375 C 13.09725 27.41275 14.1915 27 15.3125 27 C 18.1525 27 20.46875 29.243 20.46875 32 C 20.46875 34.757 18.1515 37 15.3125 37 C 13.9875 37 13.07975 36.6325 11.71875 35.5625 C 10.13975 34.3215 8.949 33.75 8 33.75 C 7.159 33.75 6.5115 34.209 6.1875 35 C 5.9985 35.46 5.96425 36.14325 6.03125 36.53125 C 6.55225 41.97225 6.80925 42.97275 7.03125 43.84375 L 7.125 44.21875 C 7.512 45.90475 8.70525 47 10.15625 47 L 42.1875 47 C 44.5075 47 46 45.528 46 43.25 L 46 17.375 C 46 15.661 45.085 14.51475 43.25 13.96875 C 43.126 13.93075 42.97475 13.9245 42.84375 13.9375 C 42.76875 13.9455 35.26275 14.691 32.59375 15 C 32.49075 15.012 32.37725 15.03125 32.28125 15.03125 C 32.02725 15.03125 31.57425 14.9925 31.40625 14.6875 C 31.22425 14.3605 31.27475 13.607 31.96875 12.5 L 32.09375 12.3125 C 33.15975 10.6155 33.6875 9.761 33.6875 8 C 33.6875 4.141 30.5045 1 26.5625 1 z"/>
</svg>