<svg xmlns="http://www.w3.org/2000/svg" viewBox="0 0 50 50" width="32" height="32" style="fill:white;opacity:0.5;">
    <path d="M25,4C12.329,4,2,12.88,2,23.994c0,6.453,3.533,12.067,8.961,15.736c-0.009,0.216,0.007,0.566-0.276,1.614 c-0.351,1.299-1.059,3.128-2.498,5.191L7.165,48h1.786c6.19,0,9.772-4.035,10.326-4.683c1.845,0.432,3.741,0.67,5.722,0.67 c12.671,0,23-8.879,23-19.994C48,12.879,37.671,4,25,4z M26,34.2h-2.7v-2.9H26V34.2z M30.5,21.6c-0.4,0.6-1.2,1.5-2.5,2.7 c-0.9,0.9-1.5,1.6-1.8,2.2c-0.3,0.5-0.4,1.3-0.4,2.5h-2.5c0-1.3,0.2-2.4,0.5-3.2s1-1.7,2.1-2.8l1.1-1.1c0.3-0.3,0.6-0.6,0.8-1 c0.4-0.6,0.6-1.2,0.6-1.9c0-0.9-0.3-1.7-0.8-2.3c-0.5-0.7-1.5-1-2.7-1c-1.6,0-2.7,0.6-3.3,1.7C21.3,18,21.1,19,21,20.1h-2.5 c0.1-1.9,0.6-3.5,1.8-4.7c1.1-1.2,2.7-1.8,4.7-1.8c1.8,0,3.3,0.5,4.4,1.6c1.1,1,1.7,2.4,1.7,4C31.1,20.2,30.9,21,30.5,21.6z"/>
</svg>