<svg xmlns="http://www.w3.org/2000/svg" viewBox="0 0 50 50" width="32" height="32" style="fill:white;opacity:0.5;">
    <path d="M 24.998047 1.9707031 C 24.494672 1.9719531 23.98825 2.1041406 23.53125 2.3691406 C 2.03625 15.442141 2.039 15.928563 2 16.601562 C 1.9837212 16.883553 2.5206005 17.466837 3.984375 18.798828 A 1.0331033 1.0331033 0 0 0 3.9667969 19 C 3.9667969 22.064394 3.9779775 29.622702 3.9804688 31.28125 A 2 2 0 0 0 3 33 A 2 2 0 0 0 3.1210938 33.679688 C 2.4456463 34.224804 2 35.043402 2 35.96875 C 2 37.149777 2.6117533 38.153364 3.1445312 39.037109 C 3.6773092 39.920855 4.2070312 40.609375 4.2070312 40.609375 A 1.0001 1.0001 0 0 0 5.7871094 40.617188 C 5.7871094 40.617188 6.32108 39.936779 6.8554688 39.056641 C 7.3898574 38.176515 8 37.158421 8 35.96875 C 8 35.043402 7.5543537 34.224804 6.8789062 33.679688 A 2 2 0 0 0 7 33 A 2 2 0 0 0 6.046875 31.298828 C 6.0447348 29.873826 6.0377164 24.355446 6.0351562 20.611328 C 7.3743366 21.79828 8.4233523 22.731528 11 25 L 11 18 C 11 18 16.292 15 25 15 C 33.708 15 39 18 39 18 L 39 25 C 45.875 18.917 48.031 17.137609 48 16.599609 C 47.96 15.927609 47.963219 15.442375 26.449219 2.359375 C 26.002719 2.099375 25.501422 1.9694531 24.998047 1.9707031 z M 39 25 C 38.973 25.024 38.819313 24.967422 38.570312 24.857422 C 38.237313 24.751422 37.703 24.591109 37 24.412109 L 37 27.115234 L 38.107422 26.994141 C 38.113422 26.995141 38.876344 26.93425 39.402344 27.40625 C 39.798344 27.76125 40 28.371656 40 29.222656 C 40 29.482985 39.959269 29.747389 39.894531 30.005859 C 34.432444 30.063399 30 34.524636 30 40 C 30 41.228169 30.233102 42.400003 30.640625 43.488281 C 28.865771 45.156973 26.983616 46 25.003906 46 C 25.002906 46 25.001 46.001953 25 46.001953 C 24.999 46.001953 24.997094 46 24.996094 46 C 20.414094 46 16.355594 41.505625 12.933594 32.640625 L 12.712891 32.068359 L 12.103516 32.005859 C 10.786516 31.869859 10 30.483656 10 29.222656 C 10 28.379656 10.196937 27.772062 10.585938 27.414062 C 11.109937 26.934062 11.891578 26.994141 11.892578 26.994141 L 13 27.113281 L 13 24.412109 C 12.26 24.601109 11.711812 24.765094 11.382812 24.871094 C 11.159813 24.973094 11.027 25.024 11 25 L 11 25.070312 C 10.469 25.174312 9.8277187 25.408969 9.2617188 25.917969 C 8.4247188 26.668969 8 27.779656 8 29.222656 C 8 31.473656 9.3665312 33.365906 11.269531 33.878906 C 14.985531 43.249906 19.607 48 25 48 C 25 48 25 47.998047 25 47.998047 C 25.001 47.998047 25.002906 48 25.003906 48 C 27.337207 48 29.522552 47.098758 31.554688 45.330078 C 33.329451 48.130594 36.448621 50 40 50 C 45.511003 50 50 45.511003 50 40 C 50 35.14194 46.509879 31.082282 41.908203 30.1875 C 41.968023 29.876419 42.001953 29.55463 42.001953 29.222656 C 42.001953 27.780656 41.575281 26.668969 40.738281 25.917969 C 40.171281 25.408969 39.531 25.174312 39 25.070312 L 39 25 z M 13 24.412109 C 15.308 23.823109 19.511 23 25 23 C 30.492 23 34.692 23.822109 37 24.412109 L 37 19.263672 C 35.161 18.478672 30.91 17 25 17 C 19.043 17 14.827 18.471812 13 19.257812 L 13 24.412109 z M 40 32 C 44.430123 32 48 35.569877 48 40 C 48 44.430123 44.430123 48 40 48 C 35.569877 48 32 44.430123 32 40 C 32 35.569877 35.569877 32 40 32 z M 5 35 C 5.5728733 35 6 35.432167 6 35.96875 C 6 36.255079 5.6101425 37.250716 5.1445312 38.017578 C 5.0744822 38.13295 5.0724303 38.116378 5.0039062 38.222656 C 4.9318693 38.110153 4.9292572 38.126306 4.8554688 38.003906 C 4.3882466 37.228902 4 36.216723 4 35.96875 C 4 35.432167 4.4271267 35 5 35 z M 39 35 L 39 39 L 35 39 L 35 41 L 39 41 L 39 45 L 41 45 L 41 41 L 45 41 L 45 39 L 41 39 L 41 35 L 39 35 z"/>
</svg>