<svg xmlns="http://www.w3.org/2000/svg" viewBox="0 0 16 16"  width="40" height="40" style="fill:white;opacity:0.5;">
    <path style="line-height:normal;text-indent:0;text-align:start;text-decoration-line:none;text-decoration-style:solid;text-decoration-color:#000;text-transform:none;block-progression:tb;isolation:auto;mix-blend-mode:normal" d="M 2.5 2 C 1.6774686 2 1 2.6774686 1 3.5 L 1 11.5 C 1 12.322531 1.6774686 13 2.5 13 L 8 13 L 8 12 L 2.5 12 C 2.2185314 12 2 11.781469 2 11.5 L 2 3.953125 L 8 8.1074219 L 14 3.9550781 L 14 9 L 15 9 L 15 3.5 C 15 2.6774686 14.322531 2 13.5 2 L 2.5 2 z M 2.5 3 L 13.5 3 C 13.533508 3 13.562289 3.0135998 13.59375 3.0195312 L 8 6.8925781 L 2.40625 3.0195312 C 2.4377112 3.0135998 2.4664925 3 2.5 3 z M 13 10 L 13 12 L 9.5 12 L 9 12 L 9 13 L 9.5 13 L 13 13 L 13 15 L 15.5 12.5 L 13 10 z" font-weight="400" font-family="sans-serif" white-space="normal" overflow="visible"/>
</svg>
