<svg xmlns="http://www.w3.org/2000/svg" version="1.1" width="42.0" height="842.0" style=" fill:#000000;opacity:0.9;">
  <defs/>
  <g id="id0:id0" transform="matrix(1.23076923077,0,0,1.23076923077,5.0,0.0)"><path d="M13,1C6.373,1,1,6.373,1,13s5.373,12,12,12s12-5.373,12-12S19.627,1,13,1z M13,20.66 c-0.938,0-1.58-0.723-1.58-1.66c0-0.964,0.669-1.66,1.58-1.66c0.963,0,1.58,0.696,1.58,1.66C14.58,19.938,13.963,20.66,13,20.66z M13.622,14.321c-0.239,0.815-0.992,0.829-1.243,0c-0.289-0.956-1.316-4.585-1.316-6.942c0-3.11,3.891-3.125,3.891,0 C14.953,9.75,13.871,13.473,13.622,14.321z"/>
</g>
  <g id="id1:id1" transform="matrix(0.84,0,0,0.84,0.0,52.0)"><path d="M 25 7 C 24.846625 7 24.7035 7.02325 24.5625 7.09375 L 0.5625 19.09375 C 0.2245 19.26375 0 19.621 0 20 C 0 20.379 0.2235 20.73625 0.5625 20.90625 L 4 22.625 L 4 37.1875 C 2.8422794 37.603663 2 38.700921 2 40 C 2 41.273 3.5325 43.6125 4.1875 44.5625 L 5 45.75 L 5.8125 44.5625 C 6.4675 43.6135 8 41.273 8 40 C 8 38.700921 7.1577206 37.603663 6 37.1875 L 6 23.625 L 8 24.625 L 8 22 C 8 18.53 12.993 17.82725 15.125 17.53125 C 18.338 17.08525 22.268 17 25 17 C 27.731 17 31.661 17.08525 34.875 17.53125 C 37.007 17.82725 42 18.53 42 22 L 42 24.625 L 49.4375 20.90625 C 49.7765 20.73725 50 20.379 50 20 C 50 19.621 49.7765 19.26375 49.4375 19.09375 L 25.4375 7.09375 C 25.297 7.02325 25.153375 7 25 7 z M 25 19 C 19.398 19 10 19.39 10 22 L 10 26.65625 C 12.08 25.76825 16.322 25 25 25 C 33.678 25 37.92 25.76825 40 26.65625 L 40 22 C 40 19.39 30.602 19 25 19 z M 25 27 C 14.608 27 10.291 28.222 10 29 C 10.017 31.603 19.403 32 25 32 C 30.48 32 39.57575 31.61625 39.96875 29.15625 C 39.97875 29.09925 40 29.059 40 29 C 39.729 28.234 35.414 27 25 27 z"/>
</g>
  <g id="id2:id2" transform="matrix(1.75,0,0,1.75,0.0,114.0)">
    <path d="M 3 5 A 1.0001 1.0001 0 1 0 3 7 L 21 7 A 1.0001 1.0001 0 1 0 21 5 L 3 5 z M 3 11 A 1.0001 1.0001 0 1 0 3 13 L 21 13 A 1.0001 1.0001 0 1 0 21 11 L 3 11 z M 3 17 A 1.0001 1.0001 0 1 0 3 19 L 21 19 A 1.0001 1.0001 0 1 0 21 17 L 3 17 z"/>
  </g>
  <g id="id3:id3" transform="matrix(1.58333333333,0,0,1.58333333333,2.0,176.0)"><path d="M 12 2 C 7.038 2 3 6.038 3 11 C 3 15.274 5.998 18.86825 10 19.78125 L 10 17.71875 C 7.112 16.85575 5 14.165 5 11 C 5 7.14 8.14 4 12 4 C 15.86 4 19 7.14 19 11 C 19 14.165 16.888 16.85575 14 17.71875 L 14 19.78125 C 18.002 18.86825 21 15.274 21 11 C 21 6.038 16.962 2 12 2 z M 12 9 L 8 14 L 11 14 L 11 22 L 13 22 L 13 14 L 16 14 L 12 9 z"/>
</g>
  <g id="id4:id4" transform="matrix(0.08316373322,0,0,0.0831639253373,3.0,234.0)"><g>
	<path d="M338.568,37.743C265.22-12.505,167.692-12.593,94.281,37.553c-15.243-8.734-34.981-6.765-47.993,6.239l-2.495,2.504   c-12.994,12.991-14.973,32.75-6.242,47.987c-50.125,73.43-50.059,170.956,0.198,244.287c-8.986,15.282-7.062,35.248,6.038,48.362   l2.495,2.504c13.117,13.108,33.074,15.019,48.369,6.047c50.722,34.498,113.409,45.853,173.655,31.033   c25.208-6.203,48.675-16.688,69.95-31.195c15.324,9.182,35.482,7.302,48.656-5.885l2.517-2.504   c13.187-13.192,15.048-33.339,5.872-48.663c14.514-21.263,25.005-44.741,31.207-69.938c14.826-60.27,3.465-122.954-31.051-173.677   c8.983-15.279,7.062-35.251-6.028-48.359l-2.517-2.504C373.822,30.678,353.856,28.765,338.568,37.743z M367.403,63.299l2.516,2.507   c4.774,4.776,4.774,12.55,0.019,17.342l-65.729,65.668l-0.084,0.075c-4.87,4.66-12.406,4.6-17.145-0.141l-2.516-2.51   c-4.689-4.698-4.744-12.421-0.234-17.062l65.837-65.878C354.847,58.519,362.623,58.519,367.403,63.299z M307.518,255.236   c-13.709-4.341-29.178-1.152-40.053,9.728l-2.516,2.498c-10.875,10.881-14.069,26.332-9.716,40.059   c-4.906,2.113-9.92,3.885-15.06,5.146c-20.696,5.098-42.764,3.17-62.33-4.996c4.312-13.764,1.18-29.43-9.599-40.203l-2.495-2.497   c-10.872-10.881-26.7-13.991-40.589-9.476c-10.695-24.807-10.785-52.882-0.27-77.766c13.889,4.642,29.829,1.573,40.859-9.457   l2.495-2.495c11.031-11.037,14.123-26.977,9.47-40.866c24.866-10.508,52.929-10.413,77.734,0.258   c-4.497,13.853-1.393,29.703,9.5,40.607l2.516,2.495c10.73,10.742,26.361,13.897,40.173,9.562   c8.19,19.578,10.124,41.634,5.031,62.354C311.396,245.304,309.619,250.325,307.518,255.236z M83.139,369.934   c-4.777,4.773-12.544,4.773-17.339-0.006l-2.498-2.511c-4.777-4.779-4.777-12.562-0.018-17.348l65.678-65.62l0.072-0.072   c4.777-4.654,12.508-4.6,17.213,0.102l2.495,2.504c4.741,4.744,4.816,12.274,0.363,16.934l-28.598,28.649L83.139,369.934z    M63.296,65.806l2.495-2.507c4.798-4.78,12.583-4.78,17.378,0.012l37.533,37.533l28.051,28.057   c4.759,4.783,4.759,12.568-0.018,17.333l-2.498,2.51c-4.771,4.765-12.556,4.777-17.314,0.036l-0.054-0.062L63.302,83.171   C58.52,78.38,58.52,70.598,63.296,65.806z M369.919,367.417l-2.516,2.511c-4.78,4.779-12.557,4.779-17.354-0.013l-65.044-65.032   l-0.756-0.876c-4.546-4.864-4.456-12.358,0.216-17.03l2.516-2.504c4.348-4.348,11.031-4.558,15.847-0.967l67.218,66.744   C374.663,355.053,374.645,362.698,369.919,367.417z"/>
</g>
</g>
  <g id="id5:id5" transform="matrix(0.76,0,0,0.76,2.0,290.0)"><path d="M 26.5625 1 C 22.6205 1 19.40625 4.141 19.40625 8 C 19.40625 9.769 20.035 10.99125 21.125 12.53125 C 21.896 13.62225 21.98975 14.345 21.84375 14.625 C 21.70475 14.894 21.16275 15.046 20.46875 15 C 17.99575 14.833 10.3415 13.9405 10.3125 13.9375 C 10.1415 13.9105 9.9665 13.90625 9.8125 13.90625 C 8.9365 13.90625 7.41975 14.32925 7.09375 17.15625 C 7.00775 17.57025 6.61525 19.8095 6.03125 27.5625 C 5.96925 27.8795 6.0175 28.16325 6.0625 28.40625 C 6.2755 29.50225 7.004 30.15625 8 30.15625 C 9.033 30.15625 10.20325 29.46275 11.78125 28.34375 C 13.09725 27.41275 14.1915 27 15.3125 27 C 18.1525 27 20.46875 29.243 20.46875 32 C 20.46875 34.757 18.1515 37 15.3125 37 C 13.9875 37 13.07975 36.6325 11.71875 35.5625 C 10.13975 34.3215 8.949 33.75 8 33.75 C 7.159 33.75 6.5115 34.209 6.1875 35 C 5.9985 35.46 5.96425 36.14325 6.03125 36.53125 C 6.55225 41.97225 6.80925 42.97275 7.03125 43.84375 L 7.125 44.21875 C 7.512 45.90475 8.70525 47 10.15625 47 L 42.1875 47 C 44.5075 47 46 45.528 46 43.25 L 46 17.375 C 46 15.661 45.085 14.51475 43.25 13.96875 C 43.126 13.93075 42.97475 13.9245 42.84375 13.9375 C 42.76875 13.9455 35.26275 14.691 32.59375 15 C 32.49075 15.012 32.37725 15.03125 32.28125 15.03125 C 32.02725 15.03125 31.57425 14.9925 31.40625 14.6875 C 31.22425 14.3605 31.27475 13.607 31.96875 12.5 L 32.09375 12.3125 C 33.15975 10.6155 33.6875 9.761 33.6875 8 C 33.6875 4.141 30.5045 1 26.5625 1 z"/>
</g>
  <g id="id6:id6" transform="matrix(1.38461538462,0,0,1.38461538462,3.0,348.0)"><path d="M 1 2 C 0.4 2 0 2.4 0 3 L 0 5 C 0 5.6 0.4 6 1 6 L 3 6 C 3.6 6 4 5.6 4 5 L 4 3 C 4 2.4 3.6 2 3 2 L 1 2 z M 6.8125 3 A 1.001098 1.001098 0 0 0 7 5 L 24 5 A 1.0001 1.0001 0 1 0 24 3 L 7 3 A 1.0001 1.0001 0 0 0 6.90625 3 A 1.001098 1.001098 0 0 0 6.8125 3 z M 1 8 C 0.4 8 0 8.4 0 9 L 0 11 C 0 11.6 0.4 12 1 12 L 3 12 C 3.6 12 4 11.6 4 11 L 4 9 C 4 8.4 3.6 8 3 8 L 1 8 z M 6.8125 9 A 1.001098 1.001098 0 0 0 7 11 L 24 11 A 1.0001 1.0001 0 1 0 24 9 L 7 9 A 1.0001 1.0001 0 0 0 6.90625 9 A 1.001098 1.001098 0 0 0 6.8125 9 z M 1 14 C 0.4 14 0 14.4 0 15 L 0 17 C 0 17.6 0.4 18 1 18 L 3 18 C 3.6 18 4 17.6 4 17 L 4 15 C 4 14.4 3.6 14 3 14 L 1 14 z M 6.8125 15 A 1.001098 1.001098 0 0 0 7 17 L 24 17 A 1.0001 1.0001 0 1 0 24 15 L 7 15 A 1.0001 1.0001 0 0 0 6.90625 15 A 1.001098 1.001098 0 0 0 6.8125 15 z M 1 20 C 0.4 20 0 20.4 0 21 L 0 23 C 0 23.6 0.4 24 1 24 L 3 24 C 3.6 24 4 23.6 4 23 L 4 21 C 4 20.4 3.6 20 3 20 L 1 20 z M 6.8125 21 A 1.001098 1.001098 0 0 0 7 23 L 24 23 A 1.0001 1.0001 0 1 0 24 21 L 7 21 A 1.0001 1.0001 0 0 0 6.90625 21 A 1.001098 1.001098 0 0 0 6.8125 21 z"/>
</g>
  <g id="id7:id7" transform="matrix(1.5,0,0,1.5,3.0,404.0)"><path d="M 12.0625 0 C 9.7745 -1.9428903e-16 9.8125 0.21875 9.8125 0.21875 C 9.5405 1.53775 9.2555 2.43275 9.0625 2.96875 C 7.8965 3.34975 6.82525 3.94775 5.90625 4.71875 C 5.35225 4.60975 4.45775 4.40675 3.21875 3.96875 C 3.21875 3.96875 3.052 3.8235 1.875 5.8125 C 0.696 7.7995 0.875 7.90625 0.875 7.90625 C 1.788 8.76425 2.387 9.426 2.75 9.875 C 2.593 10.559 2.5 11.268 2.5 12 C 2.5 12.663 2.5585 13.3125 2.6875 13.9375 C 2.3145 14.3785 1.70525 15.043 0.78125 15.875 C 0.78125 15.875 0.613 15.95675 1.75 17.96875 C 2.886 19.98075 3.03125 19.84375 3.03125 19.84375 C 4.28225 19.43075 5.193 19.25325 5.75 19.15625 C 6.666 19.95925 7.72925 20.56375 8.90625 20.96875 C 9.10025 21.49675 9.4065 22.41425 9.6875 23.78125 C 9.6875 23.78125 9.6505 24 11.9375 24 C 14.2215 24 14.21875 23.78125 14.21875 23.78125 C 14.49075 22.46325 14.7435 21.56625 14.9375 21.03125 C 16.1035 20.65025 17.17575 20.05225 18.09375 19.28125 C 18.64875 19.39025 19.54325 19.59225 20.78125 20.03125 C 20.78125 20.03125 20.944 20.1755 22.125 18.1875 C 23.302 16.1985 23.125 16.09375 23.125 16.09375 C 22.211 15.23575 21.613 14.573 21.25 14.125 C 21.406 13.439 21.5 12.732 21.5 12 C 21.5 11.337 21.4415 10.6875 21.3125 10.0625 C 21.6855 9.6225 22.29375 8.958 23.21875 8.125 C 23.21875 8.125 23.387 8.04425 22.25 6.03125 C 21.114 4.01825 20.96875 4.15625 20.96875 4.15625 C 19.71875 4.56925 18.807 4.74675 18.25 4.84375 C 17.334 4.04175 16.26975 3.43625 15.09375 3.03125 C 14.90075 2.50425 14.5945 1.58475 14.3125 0.21875 C 14.3125 0.21875 14.3465 0 12.0625 0 z M 12 4 C 16.418 4 20 7.582 20 12 C 20 16.418 16.418 20 12 20 C 7.582 20 4 16.418 4 12 C 4 7.582 7.582 4 12 4 z M 12 5 C 8.134 5 5 8.134 5 12 C 5 15.866 8.134 19 12 19 C 15.866 19 19 15.866 19 12 C 19 8.134 15.866 5 12 5 z M 12 8 C 14.209 8 16 9.791 16 12 C 16 14.209 14.209 16 12 16 C 9.791 16 8 14.209 8 12 C 8 9.791 9.791 8 12 8 z"/>
</g>
  <g id="id8:id8" transform="matrix(0.72,0,0,0.72,3.0,460.0)"><path d="M 25 2 C 12.318 2 2 11.42 2 23 C 2 27.754 3.77825 32.414 7.03125 36.125 C 8.33925 38.503 5.24525 42.67675 3.90625 44.46875 C 3.22025 45.38675 3 45.65475 3 46.09375 C 3 47.01075 3.6785 48 5.1875 48 C 8.7595 48 12.219 45.82725 15.25 43.90625 C 15.903 43.49225 16.521 43.07775 17.125 42.71875 C 19.654 43.56275 22.299 44 25 44 C 37.683 44 48 34.579 48 23 C 48 11.42 37.683 2 25 2 z M 16.5 12 C 16.926 12 17.2985 12.2845 17.4375 12.6875 L 21.9375 25.6875 C 22.1175 26.2085 21.8345 26.7575 21.3125 26.9375 C 21.2045 26.9745 21.108 27 21 27 C 20.585 27 20.2055 26.7265 20.0625 26.3125 L 18.90625 23 L 14.09375 23 L 12.9375 26.3125 C 12.7565 26.8335 12.2095 27.1155 11.6875 26.9375 C 11.1655 26.7565 10.8825 26.2085 11.0625 25.6875 L 15.5625 12.6875 C 15.7025 12.2845 16.074 12 16.5 12 z M 16.5 16.0625 L 14.78125 21 L 18.21875 21 L 16.5 16.0625 z M 33 19 C 33.553 19 34 19.448 34 20 L 34 22 L 39 22 C 39.553 22 40 22.448 40 23 C 40 23.552 39.553 24 39 24 L 37.8125 24 C 37.4495 25.395 36.45025 28.266 33.90625 30.875 C 34.88825 31.659 36.0515 32.42975 37.4375 33.09375 C 37.9355 33.33275 38.14425 33.9395 37.90625 34.4375 C 37.73425 34.7965 37.373 35 37 35 C 36.855 35 36.7015 34.97325 36.5625 34.90625 C 34.8905 34.10525 33.517 33.15875 32.375 32.21875 C 31.028 33.28175 29.3645 34.2345 27.3125 34.9375 C 27.2055 34.9735 27.107 35 27 35 C 26.584 35 26.2045 34.7275 26.0625 34.3125 C 25.8835 33.7905 26.1655 33.2425 26.6875 33.0625 C 28.3635 32.4885 29.70675 31.70175 30.84375 30.84375 C 29.05975 29.04675 28.2455 27.5455 28.1875 27.4375 C 27.9255 26.9505 28.10775 26.3225 28.59375 26.0625 C 29.08375 25.8005 29.6755 25.98375 29.9375 26.46875 C 29.9615 26.51175 30.735 27.90125 32.375 29.53125 C 34.366 27.50825 35.30675 25.303 35.71875 24 L 27 24 C 26.447 24 26 23.552 26 23 C 26 22.448 26.447 22 27 22 L 32 22 L 32 20 C 32 19.448 32.447 19 33 19 z"/>
</g>
  <g id="id9:id9" transform="matrix(2.625,0,0,2.625,0.0,516.0)"><path d="M 7.5 1 C 3.9160714 1 1 3.9160714 1 7.5 C 1 11.083929 3.9160714 14 7.5 14 C 11.083929 14 14 11.083929 14 7.5 C 14 3.9160714 11.083929 1 7.5 1 z M 7.5 2 C 10.543488 2 13 4.4565116 13 7.5 C 13 8.8390022 12.524188 10.063062 11.732422 11.015625 C 11.303755 9.7972948 10.376657 8.8153931 9.1855469 8.3320312 C 9.6824148 7.8743065 10 7.2245317 10 6.5 C 10 5.1252104 8.8747896 4 7.5 4 C 6.1252104 4 5 5.1252104 5 6.5 C 5 7.2245317 5.3175852 7.8743065 5.8144531 8.3320312 C 4.6241218 8.8153442 3.6985817 9.7978777 3.2695312 11.015625 C 2.4772618 10.062918 2 8.8394756 2 7.5 C 2 4.4565116 4.4565116 2 7.5 2 z M 7.5 5 C 8.3343494 5 9 5.6656506 9 6.5 C 9 7.3343494 8.3343494 8 7.5 8 C 6.6656506 8 6 7.3343494 6 6.5 C 6 5.6656506 6.6656506 5 7.5 5 z M 7.5 9 C 9.1998715 9 10.593656 10.208841 10.916016 11.808594 C 9.9779988 12.552786 8.7937642 13 7.5 13 C 6.2062356 13 5.0220011 12.552786 4.0839844 11.808594 C 4.4059532 10.207556 5.7997554 9 7.5 9 z"/>
</g>
  <g id="id10:id10" transform="matrix(0.64,0,0,0.64,5.0,578.0)"><path d="M25,4C12.329,4,2,12.88,2,23.994c0,6.453,3.533,12.067,8.961,15.736c-0.009,0.216,0.007,0.566-0.276,1.614 c-0.351,1.299-1.059,3.128-2.498,5.191L7.165,48h1.786c6.19,0,9.772-4.035,10.326-4.683c1.845,0.432,3.741,0.67,5.722,0.67 c12.671,0,23-8.879,23-19.994C48,12.879,37.671,4,25,4z M26,34.2h-2.7v-2.9H26V34.2z M30.5,21.6c-0.4,0.6-1.2,1.5-2.5,2.7 c-0.9,0.9-1.5,1.6-1.8,2.2c-0.3,0.5-0.4,1.3-0.4,2.5h-2.5c0-1.3,0.2-2.4,0.5-3.2s1-1.7,2.1-2.8l1.1-1.1c0.3-0.3,0.6-0.6,0.8-1 c0.4-0.6,0.6-1.2,0.6-1.9c0-0.9-0.3-1.7-0.8-2.3c-0.5-0.7-1.5-1-2.7-1c-1.6,0-2.7,0.6-3.3,1.7C21.3,18,21.1,19,21,20.1h-2.5 c0.1-1.9,0.6-3.5,1.8-4.7c1.1-1.2,2.7-1.8,4.7-1.8c1.8,0,3.3,0.5,4.4,1.6c1.1,1,1.7,2.4,1.7,4C31.1,20.2,30.9,21,30.5,21.6z"/>
</g>
  <g id="id11:id11" transform="matrix(2.5,0,0,2.5,1.0,630.0)"><path style="line-height:normal;text-indent:0;text-align:start;text-decoration-line:none;text-decoration-style:solid;text-decoration-color:#000;text-transform:none;block-progression:tb;isolation:auto;mix-blend-mode:normal" d="M 2.5 2 C 1.6774686 2 1 2.6774686 1 3.5 L 1 11.5 C 1 12.322531 1.6774686 13 2.5 13 L 8 13 L 8 12 L 2.5 12 C 2.2185314 12 2 11.781469 2 11.5 L 2 3.953125 L 8 8.1074219 L 14 3.9550781 L 14 9 L 15 9 L 15 3.5 C 15 2.6774686 14.322531 2 13.5 2 L 2.5 2 z M 2.5 3 L 13.5 3 C 13.533508 3 13.562289 3.0135998 13.59375 3.0195312 L 8 6.8925781 L 2.40625 3.0195312 C 2.4377112 3.0135998 2.4664925 3 2.5 3 z M 13 10 L 13 12 L 9.5 12 L 9 12 L 9 13 L 9.5 13 L 13 13 L 13 15 L 15.5 12.5 L 13 10 z"/>
</g>
  <g id="id12:id12" transform="matrix(2.625,0,0,2.625,0.0,690.0)"><path d="M 2.5 2 C 1.6774686 2 1 2.6774686 1 3.5 L 1 10.5 C 1 11.322531 1.6774686 12 2.5 12 L 3 12 L 3 12.5 C 3 13.322531 3.6774686 14 4.5 14 L 13.5 14 C 14.322531 14 15 13.322531 15 12.5 L 15 5.5 C 15 4.6774686 14.322531 4 13.5 4 L 13 4 L 13 3.5 C 13 2.6774686 12.322531 2 11.5 2 L 2.5 2 z M 2.5 3 L 11.5 3 C 11.781469 3 12 3.2185314 12 3.5 L 12 8.7675781 L 9.4882812 6.0273438 L 7.5136719 8.3261719 L 4.4882812 5.0273438 L 2 7.9238281 L 2 3.5 C 2 3.2185314 2.2185314 3 2.5 3 z M 9.5 4 A 0.5 0.5 0 0 0 9 4.5 A 0.5 0.5 0 0 0 9.5 5 A 0.5 0.5 0 0 0 10 4.5 A 0.5 0.5 0 0 0 9.5 4 z M 13 5 L 13.5 5 C 13.781469 5 14 5.2185314 14 5.5 L 14 12.5 C 14 12.781469 13.781469 13 13.5 13 L 4.5 13 C 4.2185314 13 4 12.781469 4 12.5 L 4 12 L 11.5 12 C 12.322531 12 13 11.322531 13 10.5 L 13 5 z M 4.5117188 6.5351562 L 8.6054688 11 L 2.5 11 C 2.2185314 11 2 10.781469 2 10.5 L 2 9.4589844 L 4.5117188 6.5351562 z M 9.5117188 7.5351562 L 12 10.25 L 12 10.5 C 12 10.781469 11.781469 11 11.5 11 L 9.9628906 11 L 8.1933594 9.0683594 L 9.5117188 7.5351562 z"/>
</g>
  <g id="id13:id13" transform="matrix(1.30769230769,0,0,1.30769230769,4.0,752.0)"><path d="M18,9h-3V2h3V9z M26,6v17c0,1.657-1.344,3-3,3H3c-1.656,0-3-1.343-3-3V3c0-1.657,1.344-3,3-3h17 c0.828,0,1.285,0.043,3.621,2.379S26,5.172,26,6z M5,9c0,0.551,0.449,1,1,1h13c0.551,0,1-0.449,1-1V2c0-0.551-0.449-1-1-1H6 C5.449,1,5,1.449,5,2V9z M23,14c0-0.551-0.449-1-1-1H4c-0.551,0-1,0.449-1,1v10c0,0.551,0.449,1,1,1h18c0.551,0,1-0.449,1-1V14z"/>
</g>
  <g id="id14:id14" transform="matrix(0.72,0,0,0.72,3.0,806.0)"><path d="M 5 4 C 3.346 4 2 5.346 2 7 L 2 32.970703 L 5.0136719 18.632812 C 5.2036719 16.019812 7.357 14 10 14 L 45 14 L 45 11 C 45 9.346 43.654 8 42 8 L 18.044922 8.0058594 C 17.765922 7.9048594 17.190859 6.9861875 16.880859 6.4921875 C 16.111859 5.2671875 15.317 4 14 4 L 5 4 z M 10 16 C 8.381 16 7.0579531 17.288531 7.0019531 18.894531 L 2.046875 42.472656 C 1.889875 43.348656 2.1282188 44.243781 2.6992188 44.925781 C 3.2702187 45.607781 4.1109531 46 5.0019531 46 L 41.488281 46 C 43.430281 46 45.086781 44.613125 45.425781 42.703125 L 49.984375 19.175781 L 50 19 C 50 17.346 48.654 16 47 16 L 10 16 z"/>
</g>
</svg>
