<svg version="1.1" id="Capa_1" xmlns="http://www.w3.org/2000/svg" x="0px" y="0px"
     width="36" height="36" style="fill:white;opacity:0.5;" viewBox="0 0 432.881 432.88"
     xml:space="preserve">
<g>
	<path d="M338.568,37.743C265.22-12.505,167.692-12.593,94.281,37.553c-15.243-8.734-34.981-6.765-47.993,6.239l-2.495,2.504
		c-12.994,12.991-14.973,32.75-6.242,47.987c-50.125,73.43-50.059,170.956,0.198,244.287c-8.986,15.282-7.062,35.248,6.038,48.362
		l2.495,2.504c13.117,13.108,33.074,15.019,48.369,6.047c50.722,34.498,113.409,45.853,173.655,31.033
		c25.208-6.203,48.675-16.688,69.95-31.195c15.324,9.182,35.482,7.302,48.656-5.885l2.517-2.504
		c13.187-13.192,15.048-33.339,5.872-48.663c14.514-21.263,25.005-44.741,31.207-69.938c14.826-60.27,3.465-122.954-31.051-173.677
		c8.983-15.279,7.062-35.251-6.028-48.359l-2.517-2.504C373.822,30.678,353.856,28.765,338.568,37.743z M367.403,63.299l2.516,2.507
		c4.774,4.776,4.774,12.55,0.019,17.342l-65.729,65.668l-0.084,0.075c-4.87,4.66-12.406,4.6-17.145-0.141l-2.516-2.51
		c-4.689-4.698-4.744-12.421-0.234-17.062l65.837-65.878C354.847,58.519,362.623,58.519,367.403,63.299z M307.518,255.236
		c-13.709-4.341-29.178-1.152-40.053,9.728l-2.516,2.498c-10.875,10.881-14.069,26.332-9.716,40.059
		c-4.906,2.113-9.92,3.885-15.06,5.146c-20.696,5.098-42.764,3.17-62.33-4.996c4.312-13.764,1.18-29.43-9.599-40.203l-2.495-2.497
		c-10.872-10.881-26.7-13.991-40.589-9.476c-10.695-24.807-10.785-52.882-0.27-77.766c13.889,4.642,29.829,1.573,40.859-9.457
		l2.495-2.495c11.031-11.037,14.123-26.977,9.47-40.866c24.866-10.508,52.929-10.413,77.734,0.258
		c-4.497,13.853-1.393,29.703,9.5,40.607l2.516,2.495c10.73,10.742,26.361,13.897,40.173,9.562
		c8.19,19.578,10.124,41.634,5.031,62.354C311.396,245.304,309.619,250.325,307.518,255.236z M83.139,369.934
		c-4.777,4.773-12.544,4.773-17.339-0.006l-2.498-2.511c-4.777-4.779-4.777-12.562-0.018-17.348l65.678-65.62l0.072-0.072
		c4.777-4.654,12.508-4.6,17.213,0.102l2.495,2.504c4.741,4.744,4.816,12.274,0.363,16.934l-28.598,28.649L83.139,369.934z
		 M63.296,65.806l2.495-2.507c4.798-4.78,12.583-4.78,17.378,0.012l37.533,37.533l28.051,28.057
		c4.759,4.783,4.759,12.568-0.018,17.333l-2.498,2.51c-4.771,4.765-12.556,4.777-17.314,0.036l-0.054-0.062L63.302,83.171
		C58.52,78.38,58.52,70.598,63.296,65.806z M369.919,367.417l-2.516,2.511c-4.78,4.779-12.557,4.779-17.354-0.013l-65.044-65.032
		l-0.756-0.876c-4.546-4.864-4.456-12.358,0.216-17.03l2.516-2.504c4.348-4.348,11.031-4.558,15.847-0.967l67.218,66.744
		C374.663,355.053,374.645,362.698,369.919,367.417z"/>
</g>
</svg>
